<?xml version="1.0" encoding="UTF-8"?>
<svg version="1.1" xmlns="http://www.w3.org/2000/svg" width="475" height="525">
<path d="M0 0 C0.8835359 -0.0002987 1.7670718 -0.0005974 2.67738152 -0.00090516 C5.60802682 -0.0005522 8.53860397 0.00708944 11.46923828 0.01486206 C13.58253957 0.0168232 15.69584123 0.01840514 17.80914307 0.01963806 C24.71930225 0.02577265 31.62941459 0.0430048 38.53955078 0.06124878 C40.92478427 0.06704412 43.31001783 0.07281054 45.69525146 0.07854843 C55.61566698 0.10319614 65.53606726 0.1307013 75.45645142 0.16589546 C89.64805759 0.21616787 103.83947029 0.2495334 118.03116417 0.259184 C128.02727408 0.26733327 138.02322349 0.29449582 148.01925087 0.33579051 C153.98309317 0.3599439 159.9466881 0.37586427 165.9105835 0.37152481 C171.51852168 0.36788183 177.12588917 0.38784449 182.73369598 0.42570305 C184.78710404 0.43551649 186.84057299 0.43690421 188.89398956 0.42907524 C200.79529149 0.38922758 209.45722435 0.66144906 219.25048828 8.07296753 C220.13607422 8.99142456 220.13607422 8.99142456 221.03955078 9.92843628 C221.64541016 10.53300659 222.25126953 11.1375769 222.87548828 11.76046753 C227.7536134 18.18297724 229.25331829 23.64609526 229.05517578 31.64718628 C229.04951599 32.5237085 229.0438562 33.40023071 229.0380249 34.30331421 C229.01581714 37.07476816 228.96565238 39.84487993 228.91455078 42.61593628 C228.89446552 44.50654247 228.87621832 46.39716914 228.85986328 48.28781128 C228.81600385 52.89769534 228.7470873 57.50658907 228.66455078 62.11593628 C229.44846191 62.41161499 230.23237305 62.7072937 231.04003906 63.01193237 C233.91247442 64.22022565 235.39314141 65.50546427 237.53955078 67.74093628 C238.22662109 68.45378784 238.91369141 69.1666394 239.62158203 69.90109253 C242.12294578 72.61289606 244.54490049 75.38491452 246.94970703 78.18234253 C248.62459377 80.07088225 250.36402665 81.84749276 252.16455078 83.61593628 C254.57787795 85.98635985 256.83726931 88.42329936 259.03955078 90.99093628 C262.33422876 94.81749052 265.87206887 98.3410093 269.46533203 101.88546753 C272.11552792 104.57332162 274.57312994 107.39166212 277.02392578 110.26046753 C278.64464587 112.09342477 280.34193489 113.79250669 282.10205078 115.49093628 C284.66455078 118.11593628 284.66455078 118.11593628 284.66455078 120.11593628 C285.32455078 120.11593628 285.98455078 120.11593628 286.66455078 120.11593628 C288.14501953 121.61984253 288.14501953 121.61984253 289.85205078 123.67843628 C292.19734836 126.44132308 294.57284483 129.08273385 297.16455078 131.61593628 C300.25792847 134.66087182 303.13674771 137.84104465 305.95751953 141.13937378 C307.07961392 142.43864096 308.22780592 143.71589794 309.40283203 144.96749878 C311.92282145 147.69798851 313.51731362 149.70694415 314.78955078 153.24093628 C314.6242451 157.04296695 313.31374109 158.46674597 310.66455078 161.11593628 C308.13979616 162.37831359 306.35254612 162.21450032 303.53955078 162.17843628 C302.62947266 162.16941284 301.71939453 162.1603894 300.78173828 162.15109253 C300.08306641 162.13949097 299.38439453 162.1278894 298.66455078 162.11593628 C298.67502441 162.94730103 298.68549805 163.77866577 298.69628906 164.63522339 C298.73065648 167.76070099 298.75558737 170.8860813 298.77441406 174.01168823 C298.78925323 176.01330005 298.81468439 178.0148244 298.84033203 180.0163269 C298.90404086 192.66252906 297.6236405 202.59221453 288.73876953 212.19796753 C282.42471935 218.02160604 276.05398142 220.69323584 267.47705078 221.36593628 C259.57098945 220.84750603 251.79068477 218.30090443 245.66455078 213.11593628 C245.66455078 212.45593628 245.66455078 211.79593628 245.66455078 211.11593628 C245.02517578 211.50781128 244.38580078 211.89968628 243.72705078 212.30343628 C240.41236428 214.26518951 237.04234362 216.10371527 233.65283203 217.93234253 C231.53218088 219.08436975 231.53218088 219.08436975 229.66455078 221.11593628 C229.47509344 224.24255414 229.41310954 227.27996554 229.4375 230.4072113 C229.43705342 231.87032829 229.43705342 231.87032829 229.43659782 233.36300319 C229.4379939 236.65255978 229.45371046 239.94189675 229.46923828 243.23141479 C229.47307417 245.58160781 229.47600293 247.93180246 229.47808838 250.28199768 C229.48442542 255.35447246 229.49698548 260.42688118 229.51422119 265.49933052 C229.53891813 272.84307668 229.55147874 280.18680935 229.56008792 287.53059088 C229.57423487 299.45757526 229.59584449 311.38453261 229.62353516 323.31149292 C229.62519078 324.02574867 229.6268464 324.74000442 229.6285522 325.47590428 C229.64203357 331.26755222 229.65587581 337.05919929 229.66975784 342.85084629 C229.68185721 347.90315781 229.69382039 352.95546963 229.70556641 358.00778198 C229.70722266 358.71904685 229.70887891 359.43031171 229.71058536 360.16313005 C229.73798851 372.0362692 229.75749182 383.9094088 229.7713871 395.78257126 C229.78113284 403.75496128 229.80107031 411.72726776 229.82824707 419.69962037 C229.84318201 424.66581423 229.84980098 429.63199416 229.85417938 434.59820747 C229.8579192 436.8987817 229.86511274 439.19935334 229.87604523 441.49990463 C229.89051905 444.64525974 229.89255098 447.79039287 229.89160156 450.93577576 C229.89879148 451.84202354 229.90598141 452.74827131 229.91338921 453.68198115 C229.88085185 463.77571463 227.89715096 472.00804047 221.66455078 480.11593628 C213.61330051 488.03410803 204.78510299 489.56325569 193.90283203 489.62765503 C192.13917549 489.65458183 192.13917549 489.65458183 190.33988953 489.68205261 C186.55231604 489.73592318 182.76485004 489.76961012 178.97705078 489.80343628 C176.63914247 489.83672131 174.30125111 489.87122059 171.96337891 489.9069519 C142.86699951 490.30614485 113.76291289 490.16518576 84.66455078 490.11593628 C83.98895379 490.11483085 83.31335679 490.11372542 82.61728716 490.1125865 C65.75005745 490.08474503 48.88314961 490.03276058 32.01618671 489.93202496 C25.19209786 489.89164356 18.36814286 489.85940447 11.54394531 489.84494019 C4.74965291 489.830528 -2.04427939 489.79555901 -8.83841705 489.74762726 C-11.38200131 489.73290823 -13.92563447 489.72490078 -16.46926117 489.72405243 C-19.97680327 489.72168941 -23.48335219 489.69470636 -26.99072266 489.66183472 C-28.01267227 489.66686508 -29.03462189 489.67189545 -30.08753967 489.67707825 C-39.19534872 489.54496737 -46.74822095 486.7622792 -53.34042168 480.34733295 C-61.56510749 471.1481935 -62.20578998 461.02802573 -62.10839844 449.35348511 C-62.11658945 447.69363986 -62.1274034 446.03380584 -62.14060974 444.37399292 C-62.16895345 439.88057954 -62.16069685 435.387903 -62.14574194 430.89445329 C-62.13624406 426.11352763 -62.1609581 421.33276812 -62.18167114 416.55189514 C-62.21603168 407.43567874 -62.21996093 398.31971236 -62.21294606 389.20344418 C-62.20659133 379.08713811 -62.23375793 368.97102459 -62.26416349 358.85477281 C-62.35208511 329.00314675 -62.35925359 299.15155381 -62.30902362 269.29985344 C-62.30524131 266.92802379 -62.30204663 264.55619421 -62.29911232 262.18436337 C-62.29817113 261.42659149 -62.29722995 260.66881961 -62.29626024 259.88808495 C-62.29442768 258.39485334 -62.29263291 256.90162169 -62.29087794 255.40838999 C-62.2854076 251.1655412 -62.2749507 246.92274356 -62.26032543 242.67991686 C-62.25059516 239.54230423 -62.24694319 236.40468285 -62.2421875 233.26705933 C-62.23662464 232.15058958 -62.23106178 231.03411983 -62.22533035 229.88381767 C-62.2248608 228.87834452 -62.22439125 227.87287136 -62.22390747 226.83692932 C-62.22130983 225.96659404 -62.2187122 225.09625875 -62.21603584 224.19954967 C-62.20121446 222.05498524 -62.20121446 222.05498524 -63.33544922 220.11593628 C-65.04715882 219.09632649 -65.04715882 219.09632649 -67.08544922 218.17843628 C-70.28094581 216.64390824 -73.32582705 214.99695014 -76.33544922 213.11593628 C-76.82013672 213.44206909 -77.30482422 213.7682019 -77.80419922 214.10421753 C-87.27231228 220.27669893 -94.84949804 222.27773364 -106.33544922 221.11593628 C-109.71237389 220.25895238 -112.39223823 218.96233269 -115.33544922 217.11593628 C-116.49173828 216.42177612 -116.49173828 216.42177612 -117.67138672 215.71359253 C-124.29719545 211.21200487 -127.86147493 205.69500815 -130.33544922 198.11593628 C-131.24048658 191.90842889 -130.90735476 185.6149008 -130.71044922 179.36593628 C-130.68028189 177.68629712 -130.65291813 176.00660516 -130.62841797 174.32687378 C-130.56302428 170.2552319 -130.45989234 166.18618372 -130.33544922 162.11593628 C-131.17052002 162.1413147 -132.00559082 162.16669312 -132.8659668 162.19284058 C-134.50021606 162.22244873 -134.50021606 162.22244873 -136.16748047 162.25265503 C-137.25005127 162.27803345 -138.33262207 162.30341187 -139.44799805 162.32955933 C-142.33544922 162.11593628 -142.33544922 162.11593628 -145.02294922 159.92843628 C-147.33544922 154.97307914 -147.33544922 154.97307914 -147.33544922 152.11593628 C-144.26426152 146.7998195 -140.19786536 142.58567254 -135.96044922 138.17843628 C-134.51481748 136.65920874 -133.06951075 135.13967187 -131.62451172 133.61984253 C-130.54024902 132.4831311 -130.54024902 132.4831311 -129.43408203 131.32345581 C-126.37815568 128.10897395 -123.35584311 124.86376552 -120.33544922 121.61593628 C-114.69927699 115.56712578 -109.03779662 109.54251685 -103.36889648 103.52438354 C-98.83090018 98.70635179 -94.2993173 93.88239287 -89.77294922 89.05343628 C-88.86162231 88.08240967 -88.86162231 88.08240967 -87.93188477 87.09176636 C-84.690428 83.63641725 -81.45837618 80.17278728 -78.23779297 76.69796753 C-77.22664429 75.61044189 -77.22664429 75.61044189 -76.19506836 74.50094604 C-74.90890052 73.11731488 -73.62536334 71.73123181 -72.3449707 70.34225464 C-71.76175049 69.71585083 -71.17853027 69.08944702 -70.57763672 68.44406128 C-69.81749268 67.62276733 -69.81749268 67.62276733 -69.04199219 66.78488159 C-67.33544922 65.11593628 -67.33544922 65.11593628 -64.65454102 63.35714722 C-62.01754592 61.26141981 -62.01754592 61.26141981 -61.83129883 57.82296753 C-61.88294189 56.53777222 -61.93458496 55.2525769 -61.98779297 53.92843628 C-62.0043544 53.23008667 -62.02091583 52.53173706 -62.03797913 51.81222534 C-62.0923108 49.57864177 -62.17907415 47.34818416 -62.27294922 45.11593628 C-62.76520899 32.94491407 -63.15102493 21.5555204 -54.89794922 11.61593628 C-53.73445553 10.42532727 -52.54923041 9.25523544 -51.33544922 8.11593628 C-50.53107422 7.35281128 -49.72669922 6.58968628 -48.89794922 5.80343628 C-42.36125722 1.49878545 -36.57016861 0.70680715 -28.96044922 0.99093628 C-24.12763397 1.12562129 -19.42486616 1.18455866 -14.61569214 0.62367058 C-9.72556391 0.11225684 -4.91339856 -0.02072368 0 0 Z M-42.96557617 23.74972534 C-44.92807188 27.13958605 -44.70748342 30.35892764 -44.62841797 34.16281128 C-44.62417313 34.93401306 -44.61992828 35.70521484 -44.61555481 36.49978638 C-44.59880305 38.95552943 -44.5611586 41.41044257 -44.52294922 43.86593628 C-44.50789779 45.53389315 -44.49421019 47.20186293 -44.48193359 48.86984253 C-44.45146822 52.95220282 -44.39460284 57.03390449 -44.33544922 61.11593628 C-18.65663261 62.45396909 7.04041231 62.24736932 32.74534321 62.21733022 C39.08867089 62.21100322 45.43199924 62.21048559 51.77532959 62.20930481 C62.38896018 62.2065675 73.00258417 62.20035667 83.61621094 62.19137573 C94.53190067 62.182149 105.44758838 62.17509416 116.36328125 62.17086792 C117.03994698 62.1706052 117.71661271 62.17034247 118.41378346 62.17007179 C121.809558 62.16876643 125.20533256 62.1675028 128.60110712 62.16625988 C156.62226014 62.15594998 184.64340499 62.13831138 212.66455078 62.11593628 C212.78902631 57.56281286 212.87929487 53.01069974 212.93920898 48.45626831 C212.9642081 46.91019416 212.9982198 45.36423645 213.04174805 43.818573 C213.73552762 32.59532912 213.73552762 32.59532912 209.30724412 22.71364039 C203.88124979 17.43625036 197.63402547 16.53226973 190.36201477 16.62818909 C189.00569727 16.62200419 189.00569727 16.62200419 187.62197942 16.61569434 C184.60891938 16.60680416 181.59673943 16.62638266 178.58374023 16.64596558 C176.41648758 16.64545649 174.24923473 16.64319896 172.08198547 16.639328 C166.20561648 16.63391379 160.32956343 16.65331034 154.45325112 16.67742896 C148.2934037 16.69875731 142.13355707 16.6981318 135.97367859 16.70011902 C125.62456852 16.70656529 115.27557668 16.72780204 104.92651367 16.75924683 C91.6687941 16.79947794 78.4111517 16.81692842 65.15337849 16.82655621 C53.73002687 16.83488126 42.30669139 16.85211202 30.88335395 16.87159371 C28.43806243 16.8756345 25.9927704 16.8793753 23.54747796 16.88281608 C16.56820206 16.89265198 9.58897143 16.90724024 2.60972404 16.92965508 C0.50111931 16.93573649 -1.60749081 16.94020917 -3.7161026 16.9428978 C-24.91689722 15.4976236 -24.91689722 15.4976236 -42.96557617 23.74972534 Z M-61.71044922 83.24093628 C-62.30857422 83.86484253 -62.90669922 84.48874878 -63.52294922 85.13156128 C-65.88377534 87.71625884 -68.16871921 90.3617521 -70.45263672 93.01437378 C-73.22013157 96.1034033 -76.18843239 98.97769256 -79.14013672 101.88937378 C-81.77551665 104.56226801 -84.21311411 107.36961931 -86.65576172 110.21749878 C-88.85710315 112.70552654 -91.21633437 115.00787705 -93.58544922 117.33468628 C-95.41787409 119.19983302 -97.12898057 121.13521374 -98.83544922 123.11593628 C-101.08102862 125.72241236 -103.38096434 128.20528149 -105.83544922 130.61593628 C-110.39929313 135.10766527 -114.77857923 139.7806313 -118.33544922 145.11593628 C14.65455078 145.11593628 147.64455078 145.11593628 284.66455078 145.11593628 C280.78296053 137.35275579 274.19772556 131.59462075 268.08032227 125.55075073 C264.63420088 122.13172576 261.38712776 118.60612959 258.23876953 114.90890503 C256.10773322 112.48174457 253.80839458 110.24775712 251.50415039 107.98654175 C249.74315635 106.19586672 248.09760565 104.35265251 246.46142578 102.44796753 C242.55793367 97.95833135 238.50292439 93.62445055 234.41455078 89.30343628 C233.35494141 88.17905151 233.35494141 88.17905151 232.27392578 87.0319519 C229.47622647 84.06730258 229.47622647 84.06730258 226.66455078 81.11593628 C226.01433569 80.33014111 226.01433569 80.33014111 225.35098493 79.52847129 C223.12773197 77.66630392 221.86130273 77.74101714 218.9833622 77.74120617 C218.01557197 77.73399963 217.04778175 77.72679308 216.05066454 77.71936816 C214.45219921 77.73042959 214.45219921 77.73042959 212.82144165 77.74171448 C211.6912622 77.73774007 210.56108275 77.73376567 209.39665544 77.72967082 C205.58950634 77.72000572 201.78272493 77.73189174 197.97558594 77.74362183 C195.25422074 77.74285206 192.53286838 77.73759391 189.81150818 77.7325592 C183.17470138 77.72305867 176.53800312 77.72968232 169.90120436 77.74182215 C162.17496171 77.75542917 154.44874504 77.75380538 146.72249345 77.75168882 C132.93688088 77.74849699 119.15131992 77.76017689 105.36572266 77.77975464 C91.9851728 77.79875221 78.60468347 77.80584435 65.22412109 77.80026245 C50.66110806 77.79420526 36.09812166 77.79438121 21.53511083 77.80574828 C19.982253 77.80695559 18.42939516 77.80816158 16.87653732 77.80936623 C16.1124673 77.80996976 15.34839728 77.8105733 14.56117363 77.81119513 C9.17437133 77.81507581 3.78757893 77.81468004 -1.59922409 77.81278038 C-8.16467675 77.81065865 -14.73007638 77.81588064 -21.29551409 77.83039393 C-24.64598724 77.83764027 -27.99631823 77.84064357 -31.34680748 77.83715057 C-34.97741539 77.83393923 -38.60778899 77.84298453 -42.2383728 77.85523987 C-43.83014597 77.84957088 -43.83014597 77.84957088 -45.45407617 77.84378737 C-46.91358475 77.85253566 -46.91358475 77.85253566 -48.40257835 77.86146069 C-49.6594815 77.86276085 -49.6594815 77.86276085 -50.94177663 77.86408728 C-55.46611204 78.34011284 -58.60500495 79.98400692 -61.71044922 83.24093628 Z M-113.33544922 164.11593628 C-113.42763495 168.27965826 -113.50714888 172.43979712 -113.55517578 176.60372925 C-113.57520765 178.01791423 -113.6024417 179.43201724 -113.63720703 180.84591675 C-113.6861041 182.88665047 -113.70850045 184.92628318 -113.72607422 186.96749878 C-113.74702148 188.19291382 -113.76796875 189.41832886 -113.78955078 190.68087769 C-113.17315369 195.34362341 -111.15156727 198.42354403 -107.72998047 201.61203003 C-103.52271006 204.11561563 -100.31560807 204.54983711 -95.48388672 203.72531128 C-92.16642898 202.78435963 -89.91608736 201.38186245 -87.33544922 199.11593628 C-85.2177105 195.05746252 -85.101548 191.59933005 -85.14013672 187.06515503 C-85.14438156 186.07694511 -85.14438156 186.07694511 -85.14871216 185.06877136 C-85.15983998 182.98013566 -85.18492974 180.89194072 -85.21044922 178.80343628 C-85.22048863 177.38091646 -85.2296128 175.95838988 -85.23779297 174.53585815 C-85.25804726 171.06224755 -85.29720726 167.58958089 -85.33544922 164.11593628 C-94.57544922 164.11593628 -103.81544922 164.11593628 -113.33544922 164.11593628 Z M-67.33544922 164.11593628 C-67.42763495 168.27965826 -67.50714888 172.43979712 -67.55517578 176.60372925 C-67.57520765 178.01791423 -67.6024417 179.43201724 -67.63720703 180.84591675 C-67.6861041 182.88665047 -67.70850045 184.92628318 -67.72607422 186.96749878 C-67.74702148 188.19291382 -67.76796875 189.41832886 -67.78955078 190.68087769 C-67.08114978 196.03958851 -64.57803457 199.06664198 -60.52294922 202.49093628 C-56.71530287 204.43208932 -54.56120196 204.64415537 -50.33544922 204.11593628 C-45.65374654 202.37177254 -43.12295731 200.24557789 -40.33544922 196.11593628 C-39.19627704 192.69841975 -39.22206441 190.08105691 -39.23779297 186.47921753 C-39.24262695 184.53112183 -39.24262695 184.53112183 -39.24755859 182.54367065 C-39.2559139 181.1719252 -39.26437885 179.80018041 -39.27294922 178.42843628 C-39.27796587 177.04497433 -39.28252849 175.66151065 -39.28662109 174.27804565 C-39.29842384 170.89065732 -39.31635955 167.50329138 -39.33544922 164.11593628 C-48.57544922 164.11593628 -57.81544922 164.11593628 -67.33544922 164.11593628 Z M-22.33544922 164.11593628 C-22.37669922 168.26156128 -22.41794922 172.40718628 -22.46044922 176.67843628 C-22.47865723 177.97209106 -22.49686523 179.26574585 -22.515625 180.59860229 C-22.55615494 189.02294629 -22.50821748 195.76161601 -16.33544922 202.11593628 C-12.09298982 204.67034341 -8.16590598 204.66996716 -3.33544922 204.11593628 C1.37817383 202.12573988 4.38627905 198.67247974 6.66455078 194.11593628 C6.75028472 191.86472886 6.77167266 189.61094325 6.76220703 187.35812378 C6.76079208 186.69507233 6.75937714 186.03202087 6.75791931 185.34887695 C6.75231832 183.22951765 6.73976579 181.11026369 6.72705078 178.99093628 C6.7220359 177.55473989 6.71747297 176.11854184 6.71337891 174.68234253 C6.70319911 171.1601338 6.68362416 167.63815307 6.66455078 164.11593628 C-2.90544922 164.11593628 -12.47544922 164.11593628 -22.33544922 164.11593628 Z M23.66455078 164.11593628 C23.59549792 168.29747059 23.53582531 172.47700968 23.49975586 176.65866089 C23.48471318 178.07962769 23.46427374 179.50054841 23.43823242 180.9213562 C23.40164731 182.96940513 23.38477981 185.01683778 23.37158203 187.06515503 C23.35587158 188.29580688 23.34016113 189.52645874 23.32397461 190.79440308 C23.88161473 196.23289326 26.62840384 199.5843077 30.66455078 203.11593628 C34.73234772 204.47186859 38.41123337 204.64669213 42.66455078 204.11593628 C47.78217896 201.4623513 50.8416102 198.58475802 52.66455078 193.11593628 C52.74814036 190.90503683 52.77186842 188.6916755 52.76220703 186.47921753 C52.75970947 185.30915161 52.75721191 184.13908569 52.75463867 182.93356323 C52.74553467 181.44687134 52.73643066 179.96017944 52.72705078 178.42843628 C52.69611328 171.34374878 52.69611328 171.34374878 52.66455078 164.11593628 C43.09455078 164.11593628 33.52455078 164.11593628 23.66455078 164.11593628 Z M69.66455078 164.11593628 C68.44235171 170.22693166 68.65063882 175.85063065 68.85205078 182.05343628 C68.87074219 183.22068237 68.88943359 184.38792847 68.90869141 185.59054565 C69.11647092 191.98796756 69.29239789 196.28442023 73.66455078 201.11593628 C77.50082736 204.5008862 81.30203505 204.6388752 86.23095703 204.45578003 C89.99385583 203.93030299 91.9235071 202.72645407 94.66455078 200.11593628 C99.48406952 192.82531884 99.13842488 186.15485087 98.91455078 177.61593628 C98.83205078 173.16093628 98.74955078 168.70593628 98.66455078 164.11593628 C89.09455078 164.11593628 79.52455078 164.11593628 69.66455078 164.11593628 Z M114.66455078 164.11593628 C114.60267578 168.77718628 114.54080078 173.43843628 114.47705078 178.24093628 C114.44973877 179.70031616 114.42242676 181.15969604 114.39428711 182.66329956 C114.38679443 183.8258728 114.37930176 184.98844604 114.37158203 186.18624878 C114.35587158 187.36976929 114.34016113 188.55328979 114.32397461 189.77267456 C114.83816032 194.82017215 116.4748844 198.04233491 120.22705078 201.42843628 C124.71726741 204.53704779 128.29341298 204.63813023 133.66455078 204.11593628 C137.37436523 202.46712986 139.99707727 200.16447743 142.66455078 197.11593628 C143.82382606 193.63811045 143.77768145 190.92790371 143.76220703 187.26046753 C143.76008461 186.26801277 143.76008461 186.26801277 143.75791931 185.25550842 C143.75233074 183.146438 143.73978043 181.03747451 143.72705078 178.92843628 C143.7220343 177.49679719 143.71747165 176.06515643 143.71337891 174.6335144 C143.70321678 171.12758089 143.68363939 167.62187801 143.66455078 164.11593628 C134.09455078 164.11593628 124.52455078 164.11593628 114.66455078 164.11593628 Z M160.66455078 164.11593628 C160.57225935 168.26135965 160.49277836 172.40316187 160.44482422 176.54879761 C160.42481833 177.95614761 160.39760416 179.36341565 160.36279297 180.77047729 C159.91844617 191.6618729 159.91844617 191.6618729 164.66455078 201.11593628 C168.77348299 204.07818973 172.53640665 204.64635047 177.48486328 204.47140503 C181.86656481 203.75682646 184.62914849 201.29415268 187.47705078 198.05343628 C189.84814521 194.18480854 189.78157736 190.91502324 189.76220703 186.47921753 C189.75970947 185.30915161 189.75721191 184.13908569 189.75463867 182.93356323 C189.74553467 181.44687134 189.73643066 179.96017944 189.72705078 178.42843628 C189.69611328 171.34374878 189.69611328 171.34374878 189.66455078 164.11593628 C180.09455078 164.11593628 170.52455078 164.11593628 160.66455078 164.11593628 Z M206.66455078 164.11593628 C206.00074187 171.41783426 205.52176307 178.17890084 205.85205078 185.42843628 C205.87074219 186.28244019 205.88943359 187.13644409 205.90869141 188.0163269 C206.14996733 193.48948082 207.05115249 196.76497166 210.66455078 201.11593628 C214.38008517 204.30068004 217.72661708 204.58563795 222.45361328 204.39718628 C227.19829807 203.79362214 229.85359472 202.14063486 232.79223633 198.42745972 C234.89072631 194.71590436 235.21040514 192.4865688 235.30908203 188.25656128 C235.34582031 186.97652222 235.38255859 185.69648315 235.42041016 184.37765503 C235.42967529 183.71942749 235.43894043 183.06119995 235.44848633 182.38302612 C235.47717901 180.35688143 235.53231024 178.33278114 235.59228516 176.30734253 C236.10339279 170.0315583 236.10339279 170.0315583 234.66455078 164.11593628 C225.42455078 164.11593628 216.18455078 164.11593628 206.66455078 164.11593628 Z M251.66455078 164.11593628 C251.57703579 168.63664649 251.52398468 173.15713698 251.47705078 177.67843628 C251.45191406 178.95525269 251.42677734 180.23206909 251.40087891 181.5475769 C251.28902496 190.76080614 251.28902496 190.76080614 254.66455078 199.11593628 C259.30880254 203.42036474 262.24086461 204.41982358 268.41455078 204.33078003 C272.87731311 203.90464821 275.04616351 201.82021067 277.91455078 198.55343628 C280.7350248 194.62491889 280.79281063 192.44792151 280.79736328 187.61203003 C280.79865234 186.31458862 280.79994141 185.01714722 280.80126953 183.6803894 C280.7991748 183.00371216 280.79708008 182.32703491 280.79492188 181.62985229 C280.7895628 179.55808213 280.79487596 177.48652789 280.80126953 175.4147644 C280.79998047 174.11861206 280.79869141 172.82245972 280.79736328 171.48703003 C280.79623535 170.29005493 280.79510742 169.09307983 280.79394531 167.85983276 C280.97717872 165.20422632 280.97717872 165.20422632 279.66455078 164.11593628 C277.59193002 164.02826516 275.51634784 164.00897755 273.44189453 164.01828003 C271.55180664 164.02311401 271.55180664 164.02311401 269.62353516 164.02804565 C268.28303969 164.03640225 266.9425449 164.04486721 265.60205078 164.05343628 C264.25765136 164.05844968 262.91325018 164.06301286 261.56884766 164.06710815 C258.26737138 164.0789414 254.96598275 164.09542657 251.66455078 164.11593628 Z M14.66455078 211.11593628 C14.00455078 211.69343628 13.34455078 212.27093628 12.66455078 212.86593628 C6.54183509 217.45797305 0.502446 220.26496399 -7.21044922 220.24093628 C-8.03287109 220.2435144 -8.85529297 220.24609253 -9.70263672 220.24874878 C-12.60122439 220.10252922 -15.47266441 219.59306708 -18.33544922 219.11593628 C-18.33544922 271.25593628 -18.33544922 323.39593628 -18.33544922 377.11593628 C3.11455078 377.11593628 24.56455078 377.11593628 46.66455078 377.11593628 C44.18955078 374.64093628 44.18955078 374.64093628 41.66455078 372.11593628 C41.00455078 372.11593628 40.34455078 372.11593628 39.66455078 372.11593628 C38.97680673 370.79335156 38.31743705 369.45607125 37.66455078 368.11593628 C37.12830078 367.12593628 36.59205078 366.13593628 36.03955078 365.11593628 C33.63640918 359.38536785 33.65511045 352.71507176 35.32080078 346.77609253 C37.36440183 342.18679879 40.32661 339.28825616 44.27392578 336.24484253 C44.73283203 335.87230347 45.19173828 335.4997644 45.66455078 335.11593628 C45.66455078 334.78593628 45.66455078 334.45593628 45.66455078 334.11593628 C44.235625 334.04245972 44.235625 334.04245972 42.77783203 333.96749878 C41.52357422 333.89273315 40.26931641 333.81796753 38.97705078 333.74093628 C37.73568359 333.6713269 36.49431641 333.60171753 35.21533203 333.52999878 C31.83977583 333.13636956 29.64537992 332.69629878 26.66455078 331.11593628 C25.44189453 328.9604187 25.44189453 328.9604187 24.60205078 326.28390503 C24.28107422 325.29438843 23.96009766 324.30487183 23.62939453 323.28536987 C23.31099609 322.23945679 22.99259766 321.1935437 22.66455078 320.11593628 C22.17148438 318.59153931 22.17148438 318.59153931 21.66845703 317.03634644 C20.6403281 313.84144579 19.64720137 310.63760196 18.66455078 307.42843628 C18.14018433 305.72095215 18.14018433 305.72095215 17.60522461 303.97897339 C15.33223658 296.50224848 13.25273738 289.02030303 11.46923828 281.41281128 C10.76341151 278.52097732 9.89894219 275.75556993 8.97705078 272.92843628 C7.8604446 269.19692071 7.61586246 265.88197295 7.68017578 262.01828003 C8.33371826 251.86258768 8.33371826 251.86258768 4.00830078 243.31124878 C0.94817266 241.61360627 -2.0827991 240.38415049 -5.33544922 239.11593628 C-7.33544922 236.11593628 -7.33544922 236.11593628 -7.21044922 232.61593628 C-6.33544922 229.11593628 -6.33544922 229.11593628 -4.71044922 227.11593628 C-1.22002646 225.64628459 0.96715136 226.3209954 4.66455078 227.11593628 C7.73469157 228.4005754 10.6263538 229.94866656 13.53955078 231.55343628 C14.31041016 231.96142456 15.08126953 232.36941284 15.87548828 232.7897644 C21.52601194 235.8388586 21.52601194 235.8388586 22.66455078 238.11593628 C22.89729287 240.99504215 23.08427835 243.85740123 23.22705078 246.74093628 C23.27023438 247.54273315 23.31341797 248.34453003 23.35791016 249.17062378 C23.46406535 251.15218738 23.56481933 253.13403899 23.66455078 255.11593628 C24.32992702 255.11832463 24.99530325 255.12071299 25.6808424 255.12317371 C41.87239789 255.18231481 58.06378534 255.25785907 74.25517559 255.35165119 C82.08522381 255.39661304 89.91522651 255.43602677 97.74536133 255.46237183 C104.57026834 255.48534881 111.39503134 255.51874336 118.21982414 255.56463784 C121.83338133 255.58857427 125.44679586 255.60730022 129.06043053 255.61355019 C133.09493712 255.62072328 137.12894727 255.65115431 141.16333008 255.68356323 C142.36094971 255.68212814 143.55856934 255.68069305 144.79248047 255.67921448 C145.89319382 255.69175262 146.99390717 255.70429077 148.12797546 255.71720886 C149.0820312 255.72181783 150.03608694 255.72642679 151.01905346 255.73117542 C154.20513724 256.19455912 156.09250423 257.20030784 158.66455078 259.11593628 C161.17583843 266.01425576 158.11946967 272.99123327 156.14892578 279.74874878 C155.77254239 281.0716976 155.39717243 282.39493512 155.02276611 283.71844482 C154.23759894 286.48287171 153.44323049 289.24442263 152.64160156 292.00411987 C151.61728302 295.53166077 150.61166751 299.06418952 149.61233139 302.59887886 C148.83917005 305.3286805 148.05844534 308.05627124 147.27521515 310.78319931 C146.72111985 312.71495218 146.17152397 314.64799382 145.62200928 316.58105469 C145.2786554 317.75932831 144.93530151 318.93760193 144.58154297 320.15158081 C144.28318542 321.18525787 143.98482788 322.21893494 143.6774292 323.28393555 C142.63270267 326.20498337 141.45054182 328.5805919 139.66455078 331.11593628 C136.96533203 332.26046753 136.96533203 332.26046753 133.97705078 332.92843628 C132.48625 333.27841675 132.48625 333.27841675 130.96533203 333.63546753 C130.20607422 333.79402222 129.44681641 333.9525769 128.66455078 334.11593628 C129.36580078 334.59031128 130.06705078 335.06468628 130.78955078 335.55343628 C136.1520772 340.33307939 139.96226419 345.9591462 140.93798828 353.12374878 C141.2548713 359.72954086 139.34152171 364.65300804 135.66455078 370.11593628 C133.76679453 372.10185236 131.92194685 373.51067685 129.66455078 375.11593628 C129.00455078 375.77593628 128.34455078 376.43593628 127.66455078 377.11593628 C146.80455078 377.11593628 165.94455078 377.11593628 185.66455078 377.11593628 C185.66455078 324.97593628 185.66455078 272.83593628 185.66455078 219.11593628 C184.01455078 219.44593628 182.36455078 219.77593628 180.66455078 220.11593628 C169.43719497 221.18270996 160.41129245 218.11332962 151.66455078 211.11593628 C150.93751953 211.71341675 150.93751953 211.71341675 150.19580078 212.32296753 C141.75153519 218.99718514 134.54047085 221.38057815 123.66455078 220.11593628 C117.03617962 218.3394564 111.30003244 214.95687909 105.66455078 211.11593628 C105.16826172 211.51425659 104.67197266 211.9125769 104.16064453 212.32296753 C96.17618239 218.54993896 90.5488666 220.80468247 80.31689453 220.60812378 C72.80780029 219.59620306 66.55528381 215.72066421 60.66455078 211.11593628 C60.10767578 211.51425659 59.55080078 211.9125769 58.97705078 212.32296753 C50.36597508 218.30126502 43.33735832 221.42281067 32.66455078 220.11593628 C25.73751671 218.381847 20.21734497 215.55817163 14.66455078 211.11593628 Z M202.66455078 215.11593628 C202.66096825 216.43868577 202.66096825 216.43868577 202.65731335 217.78815746 C202.59819802 239.23715713 202.52267019 260.68604412 202.42883587 282.13492107 C202.38385493 292.50740735 202.34444556 302.87985912 202.31811523 313.25241089 C202.29515377 322.29228091 202.2617765 331.33204192 202.21584922 340.37182552 C202.19189202 345.15909594 202.17317961 349.94625824 202.16693687 354.73358727 C202.16089732 359.23896774 202.14093842 363.74407148 202.11027527 368.24934959 C202.10147691 369.90332621 202.09777618 371.55733897 202.09954262 373.21133804 C202.10119293 375.46950557 202.08451788 377.72682702 202.0632782 379.98487854 C202.05866923 381.24865672 202.05406027 382.5124349 202.04931164 383.81450939 C201.63412284 387.37702219 200.81299385 389.27367545 198.66455078 392.11593628 C195.31880304 393.78881015 191.55046941 393.26003927 187.87112427 393.25637817 C186.94935485 393.2593493 186.02758543 393.26232042 185.0778836 393.26538157 C181.97020763 393.27409575 178.86257006 393.27557911 175.75488281 393.27706909 C173.53450436 393.28169531 171.31412671 393.2867197 169.09375 393.29211426 C163.04833841 393.30525838 157.00293794 393.31168703 150.95751429 393.31612492 C147.18414694 393.31905214 143.41078265 393.32315625 139.63741684 393.32762909 C129.19405083 393.3397404 118.75068664 393.35012186 108.30731392 393.35350418 C107.63871027 393.35372375 106.97010661 393.35394331 106.28124224 393.35416953 C105.61102204 393.35438781 104.94080183 393.35460609 104.25027192 393.35483098 C102.89210836 393.35527445 101.5339448 393.35572101 100.17578125 393.35617065 C99.50208256 393.35639208 98.82838386 393.35661351 98.13427006 393.35684165 C87.21510546 393.36079064 76.29600756 393.37824736 65.37686874 393.40153018 C54.17158204 393.42523069 42.96632768 393.43744732 31.76101196 393.4388721 C25.46750857 393.43992237 19.17409923 393.44587726 12.88061905 393.46369171 C6.96273612 393.48011667 1.0450185 393.48235508 -4.87287903 393.4735527 C-7.04815741 393.47277936 -9.22344448 393.47716396 -11.39870071 393.48701096 C-14.36201838 393.49964148 -17.32474266 393.4939022 -20.28805542 393.48342896 C-21.15439413 393.49148536 -22.02073284 393.49954176 -22.91332424 393.5078423 C-26.41228627 393.47880169 -28.71559948 393.44666029 -31.83841133 391.78046799 C-34.91188923 388.36311867 -34.47125064 384.63465913 -34.4936676 380.26335144 C-34.49860558 379.56250071 -34.50354356 378.86164998 -34.50863117 378.13956136 C-34.52401738 375.78574148 -34.53236982 373.4319489 -34.54077148 371.07809448 C-34.55034913 369.39294188 -34.56035914 367.7077917 -34.57077026 366.02264404 C-34.59783773 361.44240464 -34.61883733 356.86215492 -34.63877225 352.28187966 C-34.66062044 347.49723183 -34.68801483 342.71261589 -34.71482849 337.92799377 C-34.76477117 328.86516509 -34.80970416 319.80231871 -34.85285085 310.7394554 C-34.90220977 300.42275334 -34.95713289 290.10608327 -35.01253045 279.78941214 C-35.12637468 258.56494998 -35.23320841 237.34045729 -35.33544922 216.11593628 C-39.79044922 217.60093628 -39.79044922 217.60093628 -44.33544922 219.11593628 C-45.28556489 275.27915827 -45.47873881 331.43965724 -45.23834771 387.60921484 C-45.21410344 393.55517653 -45.20297369 399.50107673 -45.19729614 405.44708252 C-45.18999133 412.77552792 -45.16463789 420.10364663 -45.11649781 427.43194193 C-45.0919784 431.22506544 -45.07539909 435.01779295 -45.07970619 438.81100273 C-45.0839918 442.96796562 -45.04926818 447.12370063 -45.01074219 451.28048706 C-45.01779962 452.50154994 -45.02485704 453.72261282 -45.03212833 454.9806776 C-45.04177255 461.84215207 -45.04177255 461.84215207 -42.04324341 467.79315186 C-38.46025748 470.86668822 -35.90241275 472.36466262 -31.15870094 472.37041187 C-30.32887219 472.37624407 -29.49904344 472.38207626 -28.64406836 472.38808519 C-27.7376577 472.38430586 -26.83124704 472.38052654 -25.89736938 472.37663269 C-24.93038317 472.38045824 -23.96339696 472.38428378 -22.96710813 472.38822526 C-19.71825159 472.39856599 -16.46957142 472.39456103 -13.22070312 472.39059448 C-10.89490088 472.39494038 -8.56910007 472.40012311 -6.24330139 472.40608215 C0.08105915 472.41949702 6.40536003 472.42004802 12.72973204 472.41751885 C18.67272969 472.41631573 24.61571723 472.42252307 30.55871184 472.42795231 C43.04922448 472.438831 55.53971012 472.43666392 68.03022428 472.43056747 C79.45553615 472.42539908 90.88076274 472.43665106 102.30605774 472.45566569 C114.03801016 472.47504094 125.76992224 472.48330057 137.50189078 472.47954243 C144.08829004 472.47772733 150.67461121 472.48038842 157.26099777 472.49425697 C163.45470176 472.50681006 169.64823482 472.50491497 175.84193611 472.49184608 C178.11635075 472.48947521 180.39077733 472.49223318 182.6651783 472.50046921 C185.76781973 472.51089503 188.86988324 472.50286914 191.97250366 472.49015808 C192.87445288 472.49753237 193.7764021 472.50490665 194.70568311 472.5125044 C199.77648698 472.46874269 203.27566104 471.93873002 207.66455078 469.11593628 C211.25972906 465.22925706 212.79033975 462.25969895 212.78759861 456.98300648 C212.78958966 456.137535 212.79158071 455.29206352 212.79363209 454.42097169 C212.78926283 453.02750167 212.78926283 453.02750167 212.7848053 451.60588074 C212.78565972 450.61918134 212.78651415 449.63248195 212.78739446 448.61588258 C212.78904751 445.29467459 212.78353072 441.9735166 212.77807617 438.65231323 C212.77779424 436.2775167 212.77795216 433.90272007 212.77851868 431.52792358 C212.7787765 425.7390587 212.7744318 419.95021032 212.76808102 414.16134921 C212.76093887 407.42638001 212.75943641 400.69141317 212.75829285 393.95644071 C212.75610343 381.94539342 212.74944633 369.93435293 212.73999023 357.92330933 C212.73081327 346.25468988 212.72373382 334.58607228 212.71948242 322.91744995 C212.7192197 322.19837219 212.71895697 321.47929442 212.71868629 320.73842642 C212.71738127 317.13107717 212.71611756 313.5237279 212.71487439 309.91637862 C212.70450521 279.98289308 212.68681563 250.04941547 212.66455078 220.11593628 C209.36455078 218.46593628 206.06455078 216.81593628 202.66455078 215.11593628 Z M26.66455078 272.11593628 C28.92696206 282.92259908 28.92696206 282.92259908 31.67236328 293.53781128 C32.01912109 294.7469519 32.36587891 295.95609253 32.72314453 297.20187378 C33.07505859 298.4110144 33.42697266 299.62015503 33.78955078 300.86593628 C34.14919922 302.12148315 34.50884766 303.37703003 34.87939453 304.67062378 C36.42757439 310.52238244 36.42757439 310.52238244 38.66455078 316.11593628 C45.8096731 316.26145669 52.95486014 316.40343385 60.10009766 316.54318237 C62.52036049 316.59090857 64.94060865 316.6393855 67.36083984 316.68869019 C79.52420484 316.93599512 91.68586014 317.16122458 103.85205078 317.17843628 C104.71943878 317.18073242 105.58682678 317.18302856 106.48049927 317.18539429 C113.90473358 317.17627618 121.26903944 316.76102761 128.66455078 316.11593628 C129.11830078 314.98156128 129.57205078 313.84718628 130.03955078 312.67843628 C130.29478516 312.04035034 130.55001953 311.4022644 130.81298828 310.74484253 C131.59902309 308.31823048 132.17405235 305.94155817 132.71777344 303.45162964 C132.89571442 302.64003891 133.0736554 301.82844818 133.25698853 300.99226379 C133.39148407 300.37307571 133.52597961 299.75388763 133.66455078 299.11593628 C133.02197327 299.10784943 132.37939575 299.09976257 131.71734619 299.09143066 C125.03385508 299.00542307 118.35066187 298.90592088 111.66748047 298.79855347 C109.17273966 298.76025274 106.67794342 298.72540182 104.18310547 298.69406128 C100.59859393 298.64843504 97.01446438 298.59043568 93.43017578 298.52999878 C91.75498871 298.51267197 91.75498871 298.51267197 90.04595947 298.49499512 C89.0051825 298.47512543 87.96440552 298.45525574 86.89208984 298.43478394 C85.51975189 298.41479843 85.51975189 298.41479843 84.11968994 298.39440918 C81.50954723 298.09835508 79.87281057 297.52181017 77.66455078 296.11593628 C76.1396308 293.06609632 76.4289253 290.47359938 76.66455078 287.11593628 C78.49570285 284.50000475 79.57423444 284.14604172 82.66455078 283.11593628 C84.48920978 282.99984269 86.31762964 282.93937099 88.14575195 282.91061401 C89.82715523 282.88069618 89.82715523 282.88069618 91.54252625 282.85017395 C92.75197403 282.83346146 93.96142181 282.81674896 95.20751953 282.79953003 C96.4462532 282.77874893 97.68498688 282.75796783 98.96125793 282.73655701 C102.25080334 282.68221831 105.54037804 282.63197677 108.83001709 282.58370972 C112.18832892 282.53342982 115.54655124 282.47777767 118.90478516 282.4225769 C125.49130237 282.3154058 132.07788663 282.21363492 138.66455078 282.11593628 C139.9808177 278.49620226 140.66455078 276.02026497 140.66455078 272.11593628 C103.04455078 272.11593628 65.42455078 272.11593628 26.66455078 272.11593628 Z M90.5 333.21749878 C87.03336805 333.33691771 83.56783015 333.47400619 80.10205078 333.61593628 C78.90257812 333.66363159 77.70310547 333.7113269 76.46728516 333.76046753 C73.53297305 333.87737239 70.59873617 333.99589997 67.66455078 334.11593628 C68.43412109 334.7063269 69.20369141 335.29671753 69.99658203 335.90499878 C75.51616386 340.47905927 78.93006995 345.97457043 79.95361328 353.13937378 C80.39014182 359.68730181 78.29476781 364.72247099 74.66455078 370.11593628 C72.76679453 372.10185236 70.92194685 373.51067685 68.66455078 375.11593628 C68.00455078 375.77593628 67.34455078 376.43593628 66.66455078 377.11593628 C80.85455078 377.44593628 95.04455078 377.77593628 109.66455078 378.11593628 C107.18955078 376.13593628 107.18955078 376.13593628 104.66455078 374.11593628 C99.51517679 369.59453472 96.19247444 365.07802999 95.27783203 358.21359253 C95.04005314 351.71156978 95.61970434 346.36141438 99.66455078 341.11593628 C101.86580602 338.91939465 104.16787963 336.96740028 106.66455078 335.11593628 C101.5036615 332.20580602 96.24336526 333.03317229 90.5 333.21749878 Z M52.97705078 349.67843628 C50.33817044 351.99888259 50.33817044 351.99888259 50.10205078 355.67843628 C50.37545644 359.07590613 50.37545644 359.07590613 52.22705078 361.11593628 C55.71597887 362.54729139 58.0621105 362.04990228 61.66455078 361.11593628 C63.99498636 357.62028291 64.25218322 356.22936338 63.66455078 352.11593628 C61.45966819 349.65177494 61.45966819 349.65177494 58.66455078 348.11593628 C55.57868645 347.86462605 55.57868645 347.86462605 52.97705078 349.67843628 Z M111.66455078 351.11593628 C110.41125294 353.96883326 110.41125294 353.96883326 110.66455078 357.11593628 C112.07333174 360.10610058 112.07333174 360.10610058 114.66455078 362.11593628 C117.66455078 362.86593628 117.66455078 362.86593628 120.66455078 362.11593628 C123.16455078 360.61593628 123.16455078 360.61593628 124.66455078 358.11593628 C125.41455078 355.11593628 125.41455078 355.11593628 124.66455078 352.11593628 C122.45966819 349.65177494 122.45966819 349.65177494 119.66455078 348.11593628 C115.96925258 348.11593628 114.55081739 348.83730475 111.66455078 351.11593628 Z " fill="#8DD4BB" transform="translate(159.33544921875,27.884063720703125)"/>
<path d="M0 0 C0.94129741 -0.00583219 1.88259482 -0.01166439 2.8524164 -0.01767331 C4.39879791 -0.01200433 4.39879791 -0.01200433 5.97641945 -0.00622082 C7.07407934 -0.01004636 8.17173923 -0.01387191 9.30266154 -0.01781338 C12.99373657 -0.02816125 16.68465655 -0.02414779 20.37574196 -0.02018261 C23.01681475 -0.02452811 25.65787602 -0.02964597 28.29894447 -0.03567028 C34.73606083 -0.04842902 41.1731355 -0.05020949 47.61026238 -0.04787002 C52.84229083 -0.04608789 58.07430661 -0.04783424 63.30633354 -0.05209446 C64.05063142 -0.05268965 64.79492929 -0.05328484 65.56178165 -0.05389806 C67.07377413 -0.0551098 68.58576661 -0.05632393 70.09775908 -0.05754044 C84.28219465 -0.06842065 98.46660646 -0.0662513 112.65104337 -0.06015559 C125.62831751 -0.05498687 138.60551658 -0.06623982 151.58277588 -0.08525381 C164.9057848 -0.10462481 178.2287582 -0.11288946 191.5517813 -0.10913056 C199.0324371 -0.10721728 206.513029 -0.10971833 213.99367332 -0.1238451 C220.36255423 -0.13575054 226.73133193 -0.13717331 233.10021423 -0.12505493 C236.34959075 -0.11916007 239.59873912 -0.11970645 242.8481102 -0.13005733 C246.37111804 -0.14047196 249.8936158 -0.13246609 253.416605 -0.11974621 C254.44306456 -0.12712049 255.46952412 -0.13449478 256.52708852 -0.14209253 C261.87666585 -0.10136201 265.71490244 0.21183795 270.32349586 3.25447559 C272.31139577 5.76095808 272.32801906 7.03736222 272.26099586 10.25447559 C271.05319562 14.11943637 269.71894379 15.09136654 266.32349586 17.25447559 C262.94916725 17.78018665 262.94916725 17.78018665 258.98267555 17.81624317 C257.87652114 17.83410389 257.87652114 17.83410389 256.74802017 17.85232544 C254.24695177 17.88728146 251.74666588 17.89320523 249.24537086 17.89900684 C247.40548185 17.91727126 245.56560704 17.93701453 243.72574806 17.95808887 C238.59637278 18.01044667 233.46718417 18.03514271 228.33758736 18.05361271 C225.07219688 18.06698091 221.80691569 18.08704377 218.54157448 18.10930347 C200.94281583 18.22735974 183.34432172 18.25550921 165.74524689 18.25459766 C164.10120519 18.25451479 162.45716349 18.25451772 160.8131218 18.25459766 C134.33893601 18.25585303 107.86523217 18.20160373 81.39125299 18.09796339 C74.61619237 18.07215345 67.84114483 18.05542706 61.06604958 18.0419817 C52.71233605 18.02493342 44.35883394 17.99270465 36.00525558 17.94183695 C31.674582 17.91574032 27.34412127 17.896003 23.01336479 17.89293385 C19.00509151 17.8897853 14.99736086 17.86803124 10.98925638 17.83155 C9.52922223 17.8214785 8.06912326 17.8181579 6.60905981 17.8221451 C4.62184949 17.82652651 2.63463403 17.80403833 0.64756203 17.78018665 C-0.46031481 17.77520066 -1.56819164 17.77021467 -2.7096405 17.76507759 C-6.38157976 17.13313095 -8.05314512 15.8578511 -10.67650414 13.25447559 C-11.90290248 9.65193044 -12.00244927 8.00929592 -10.48900414 4.50447559 C-7.4975869 0.79099213 -4.67158335 0.00498435 0 0 Z " fill="#8BD3BA" transform="translate(112.67650413513184,134.7455244064331)"/>
<path d="M0 0 C0 0.66 0 1.32 0 2 C0.721875 2.165 1.44375 2.33 2.1875 2.5 C6.82128344 4.97135117 8.94711404 9.18868595 10.7578125 14.0234375 C12.98093179 21.94525694 12.74152197 29.61706368 9 37 C4.1314583 43.96145503 -1.20179316 48.84724078 -9.6328125 50.5234375 C-18.91168464 51.68652732 -26.29369203 50.36026943 -33.921875 44.8125 C-40.46518018 39.10555714 -42.97486031 32.76038506 -43.94140625 24.2109375 C-44.07750799 16.75256217 -41.54502815 10.58962751 -36.87890625 4.82421875 C-26.49521027 -5.25724907 -12.56494896 -7.10744588 0 0 Z M-26 18 C-27.06111908 20.74874996 -27.34920887 23.07466014 -27 26 C-25.40292327 29.19415346 -23.97722839 31.22495679 -21.1875 33.4375 C-16.9217484 34.53440755 -13.19159102 33.47663641 -9.1875 31.875 C-6.09057212 29.22049039 -5.61762334 26.98023929 -5 23 C-5.703152 19.30845202 -7.06767354 17.92917885 -9.6875 15.1875 C-16.19816136 10.88800665 -20.97793459 12.26049667 -26 18 Z " fill="#8FD4BC" transform="translate(259,436)"/>
<path d="M0 0 C1.10572105 -0.00642769 1.10572105 -0.00642769 2.23377991 -0.01298523 C3.78955053 -0.01871621 5.34534794 -0.01923787 6.90112305 -0.01489258 C9.27374258 -0.01173394 11.64511274 -0.03520055 14.01757812 -0.06054688 C15.53255052 -0.06282024 17.04752625 -0.06352319 18.5625 -0.0625 C19.26785385 -0.07170975 19.9732077 -0.08091949 20.69993591 -0.09040833 C25.09327471 -0.0494067 27.83841803 0.63549054 31.34765625 3.30078125 C33.10844503 5.70185686 33.38340567 6.82412229 33.16015625 9.80078125 C32.27363467 12.52853997 31.29578026 14.20280154 29.34765625 16.30078125 C25.77987648 17.49004117 22.50820136 17.48174707 18.79296875 17.50390625 C18.05440643 17.50960632 17.31584412 17.5153064 16.55490112 17.5211792 C14.99315824 17.5306177 13.43139555 17.53715862 11.86962891 17.54101562 C9.48825099 17.55071771 7.10773781 17.58174903 4.7265625 17.61328125 C3.20703636 17.61981219 1.68750406 17.62506231 0.16796875 17.62890625 C-0.54052216 17.64125305 -1.24901306 17.65359985 -1.97897339 17.6663208 C-6.37947614 17.64662879 -9.17303424 17.03677272 -12.65234375 14.30078125 C-14.15234375 11.48828125 -14.15234375 11.48828125 -14.65234375 8.30078125 C-13.57557018 5.19010205 -12.74843002 3.07194398 -10.01342773 1.14770508 C-6.69612467 -0.04221575 -3.48056511 -0.00448447 0 0 Z " fill="#8DD4BB" transform="translate(233.65234375,58.69921875)"/>
<path d="M0 0 C1.32 0 2.64 0 4 0 C4 1.32 4 2.64 4 4 C32.61259673 4.04559878 61.2251889 4.0810057 89.83781483 4.10213066 C93.21373533 4.10463215 96.58965577 4.10722079 99.96557617 4.10986328 C100.63767756 4.1103879 101.30977896 4.11091252 102.00224706 4.11145304 C112.89309536 4.12016203 123.78392261 4.13593472 134.67475841 4.15430559 C145.84494262 4.17299091 157.01511959 4.18396406 168.1853196 4.18817699 C174.46147649 4.19078991 180.73758558 4.19695349 187.01372719 4.21146011 C192.9159534 4.22499248 198.81811192 4.22923147 204.72035217 4.22621536 C206.89121048 4.22676748 209.06207095 4.23077068 211.23291588 4.23841095 C214.187817 4.24830421 217.14245972 4.24598949 220.09736633 4.24050903 C220.96409118 4.24633472 221.83081602 4.2521604 222.72380525 4.25816262 C227.65537739 4.23637548 227.65537739 4.23637548 232 2 C232.99 2.33 233.98 2.66 235 3 C232.48234355 5.58774404 230.48385165 6.22598748 226.99224949 6.38031673 C225.31919068 6.39814279 223.6459069 6.39931441 221.97279358 6.38768005 C221.05002088 6.39306559 220.12724817 6.39845113 219.17651266 6.40399987 C216.07725716 6.41833396 212.9784255 6.41116223 209.87915039 6.40405273 C207.66009679 6.40975344 205.44104613 6.41671653 203.22200012 6.42485046 C197.18899372 6.44282995 191.15613237 6.44160448 185.12310719 6.43590808 C180.09057736 6.43282317 175.05807567 6.43890089 170.02554983 6.44494683 C157.47633953 6.45981051 144.92719946 6.45616528 132.37799417 6.44408352 C121.47899738 6.43415093 110.58017034 6.4470913 99.68119974 6.47101771 C88.49052574 6.49539943 77.29991332 6.50461894 66.109209 6.49836498 C59.82630866 6.49498905 53.5435486 6.49745276 47.2606678 6.51461601 C41.35336294 6.53004821 35.44638296 6.52617084 29.53909111 6.50731087 C27.36907388 6.50361468 25.19903277 6.50676324 23.02903748 6.51719666 C20.07037709 6.53033761 17.11280313 6.51892 14.15419006 6.50120544 C13.29212843 6.51081045 12.43006681 6.52041546 11.5418821 6.53031152 C7.47599845 6.48010143 5.4652246 6.28868162 1.92786312 4.09367466 C0 2 0 2 0 0 Z " fill="#92C7B5" transform="translate(125,416)"/>
<path d="M0 0 C7.18993376 -0.02534095 14.37985601 -0.04286308 21.56982422 -0.05493164 C24.01611766 -0.05996249 26.46240809 -0.06678784 28.90869141 -0.07543945 C32.42351016 -0.08755952 35.93828918 -0.09324079 39.453125 -0.09765625 C41.0955014 -0.10539818 41.0955014 -0.10539818 42.77105713 -0.11329651 C44.30219147 -0.11340981 44.30219147 -0.11340981 45.86425781 -0.11352539 C47.20994843 -0.11685631 47.20994843 -0.11685631 48.58282471 -0.12025452 C50.86329333 -0.00680116 52.81529132 0.35864041 55 1 C55.04241723 3.33294775 55.04092937 5.66702567 55 8 C54.67 8.33 54.34 8.66 54 9 C54.66 9.33 55.32 9.66 56 10 C56 11.65 56 13.3 56 15 C54.35 15.33 52.7 15.66 51 16 C51 16.99 51 17.98 51 19 C50.34 18.67 49.68 18.34 49 18 C50.65 12.72 52.3 7.44 54 2 C51.65285889 2.01571045 51.65285889 2.01571045 49.25830078 2.03173828 C43.46991247 2.06785408 37.68153417 2.09086975 31.89306641 2.10986328 C29.38458585 2.11994011 26.87611708 2.13360179 24.36767578 2.15087891 C20.76852512 2.17505337 17.16952933 2.18646612 13.5703125 2.1953125 C12.44319855 2.20563507 11.31608459 2.21595764 10.15481567 2.22659302 C9.11388763 2.22674408 8.07295959 2.22689514 7.00048828 2.22705078 C6.08115509 2.231492 5.1618219 2.23593323 4.21463013 2.24050903 C2 2 2 2 0 0 Z " fill="#95C8B8" transform="translate(239,325)"/>
<path d="M0 0 C0.66992981 0.52993073 0.66992981 0.52993073 1.35339355 1.07056713 C7.2923572 5.31700607 12.11358401 5.71957311 19.28125 5.65942383 C20.38457169 5.66990753 21.48789337 5.68039124 22.62464905 5.69119263 C26.25005509 5.71985801 29.87450131 5.71366057 33.5 5.70703125 C36.02206616 5.72015132 38.54412182 5.73545649 41.06616211 5.75285339 C47.01227853 5.78861471 52.95818618 5.80243586 58.90438557 5.8054778 C65.67843321 5.81017874 72.45225324 5.84313502 79.2262001 5.87837565 C93.15077222 5.95018816 107.0752577 5.98680734 121 6 C121 6.33 121 6.66 121 7 C53.01820803 8.09606129 53.01820803 8.09606129 27.17660522 8.17724609 C25.27296432 8.1840614 23.36933247 8.19429447 21.46572876 8.20800781 C18.86898703 8.22553058 16.27257408 8.23016021 13.67578125 8.23046875 C12.5558075 8.2411866 12.5558075 8.2411866 11.41320801 8.25212097 C7.71305612 8.23553465 6.16613052 8.11075368 3 6 C0 2.44444444 0 2.44444444 0 0 Z " fill="#97C4B6" transform="translate(116,494)"/>
<path d="M0 0 C1.25361328 0.00322266 2.50722656 0.00644531 3.79882812 0.00976562 C5.76432617 0.02233398 5.76432617 0.02233398 7.76953125 0.03515625 C9.10481606 0.04017308 10.44010266 0.04473566 11.77539062 0.04882812 C15.04431598 0.0606293 18.31315116 0.07709328 21.58203125 0.09765625 C21.58203125 0.42765625 21.58203125 0.75765625 21.58203125 1.09765625 C8.21703125 1.59265625 8.21703125 1.59265625 -5.41796875 2.09765625 C-8.33862906 7.92956183 -8.33862906 7.92956183 -7.41796875 14.09765625 C-8.07796875 14.75765625 -8.73796875 15.41765625 -9.41796875 16.09765625 C-11.48046875 14.03515625 -11.48046875 14.03515625 -13.41796875 11.09765625 C-13.35619359 7.51469714 -13.18637039 5.14547667 -11.04296875 2.22265625 C-7.49913296 -0.23076853 -4.16183826 -0.01883185 0 0 Z " fill="#95CCB9" transform="translate(114.41796875,134.90234375)"/>
<path d="M0 0 C9.52746977 -0.0696304 19.05485141 -0.12287732 28.58252048 -0.15543652 C33.00700964 -0.17106639 37.4313242 -0.19225549 41.85571289 -0.22631836 C46.12862289 -0.25900769 50.40136536 -0.27687316 54.67439079 -0.28463173 C56.30141778 -0.2901581 57.928436 -0.30094974 59.55539131 -0.31719017 C61.84124411 -0.33909225 64.12641202 -0.34196168 66.41235352 -0.34057617 C67.71141129 -0.34723801 69.01046906 -0.35389984 70.34889221 -0.36076355 C74.60181114 0.05946456 77.23032579 1.02563786 81 3 C81.9375 5.1875 81.9375 5.1875 82 7 C81.00157829 6.02688873 81.00157829 6.02688873 79.98298645 5.03411865 C76.33935031 2.54949851 73.52868117 2.42400298 69.2722168 2.45410156 C68.51070816 2.44376389 67.74919952 2.43342621 66.96461487 2.42277527 C64.45926597 2.39338724 61.95472634 2.391849 59.44921875 2.390625 C57.70757002 2.37564059 55.96593548 2.35891288 54.22431946 2.34051514 C49.64915305 2.29685849 45.07417832 2.27684632 40.49884033 2.26177979 C35.82658563 2.24220259 31.15453775 2.20023327 26.48242188 2.16015625 C17.3216784 2.08487246 8.16098126 2.03456992 -1 2 C-0.67 1.34 -0.34 0.68 0 0 Z " fill="#8BC9B2" transform="translate(306,104)"/>
<path d="M0 0 C0.73951904 -0.00428513 1.47903809 -0.00857025 2.2409668 -0.01298523 C3.80093362 -0.01871556 5.36092715 -0.01923835 6.92089844 -0.01489258 C9.30450015 -0.01172937 11.68686382 -0.0352172 14.0703125 -0.06054688 C15.5885401 -0.06281973 17.10677104 -0.06352343 18.625 -0.0625 C19.33551514 -0.07170975 20.04603027 -0.08091949 20.77807617 -0.09040833 C24.90873914 -0.05186253 27.3108197 0.38253454 30.3125 3.30078125 C28.85426788 3.32778555 27.39589325 3.34717912 25.9375 3.36328125 C25.12539063 3.37488281 24.31328125 3.38648438 23.4765625 3.3984375 C21.3125 3.30078125 21.3125 3.30078125 19.3125 2.30078125 C14.66526329 2.18359975 10.02029749 2.39937896 5.375 2.55078125 C4.07369141 2.57785156 2.77238281 2.60492188 1.43164062 2.6328125 C-0.43524414 2.69275391 -0.43524414 2.69275391 -2.33984375 2.75390625 C-4.05675415 2.80272949 -4.05675415 2.80272949 -5.80834961 2.85253906 C-8.89669885 3.33335049 -9.84073592 3.84714736 -11.6875 6.30078125 C-11.6875 4.98078125 -11.6875 3.66078125 -11.6875 2.30078125 C-7.9665017 -0.10196492 -4.28249571 -0.00549334 0 0 Z " fill="#91C7B5" transform="translate(233.6875,58.69921875)"/>
<path d="M0 0 C9.9 0 19.8 0 30 0 C30.06886985 4.7877298 30.12860026 9.57374177 30.16479492 14.36157227 C30.17988243 15.99021223 30.20035506 17.61881156 30.22631836 19.24731445 C30.26270449 21.58815535 30.2797262 23.92845919 30.29296875 26.26953125 C30.30845261 26.99775589 30.32393646 27.72598053 30.33988953 28.47627258 C30.34158031 33.55384196 30.34158031 33.55384196 28.48168945 35.9831543 C27.99273193 36.31871338 27.50377441 36.65427246 27 37 C26.67 36.34 26.34 35.68 26 35 C26.30083496 34.27466064 26.60166992 33.54932129 26.91162109 32.80200195 C28.20859599 29.46297528 28.31951498 26.74501653 28.4140625 23.16796875 C28.44967285 22.00289795 28.4852832 20.83782715 28.52197266 19.63745117 C28.55597168 18.16896729 28.5899707 16.7004834 28.625 15.1875 C28.810625 8.1646875 28.810625 8.1646875 29 1 C19.43 1 9.86 1 0 1 C0 0.67 0 0.34 0 0 Z " fill="#94C9B7" transform="translate(320,191)"/>
<path d="M0 0 C2.72882458 4.09323687 2.74146473 7.19149109 2 12 C-1.49956635 21.24978317 -1.49956635 21.24978317 -5 23 C-5 21.68 -5 20.36 -5 19 C-4.34 18.67 -3.68 18.34 -3 18 C-3.03480469 17.11957031 -3.06960937 16.23914063 -3.10546875 15.33203125 C-3.13253906 14.17058594 -3.15960938 13.00914062 -3.1875 11.8125 C-3.22230469 10.66394531 -3.25710937 9.51539063 -3.29296875 8.33203125 C-2.97622579 4.72960801 -2.08533398 2.90633161 0 0 Z " fill="#95CCB8" transform="translate(238,376)"/>
<path d="M0 0 C6.56497775 0.27936076 10.92528977 2.89449408 16 7 C16.33 7.66 16.66 8.32 17 9 C15.02 9.99 15.02 9.99 13 11 C12.34 10.01 11.68 9.02 11 8 C9.68 8.33 8.36 8.66 7 9 C7 7.02 7 5.04 7 3 C5.02 3 3.04 3 1 3 C0.67 2.01 0.34 1.02 0 0 Z " fill="#9ED3BF" transform="translate(362,29)"/>
<path d="M0 0 C0.33 0 0.66 0 1 0 C1.09898615 4.91123589 1.17152247 9.82188938 1.21972656 14.73388672 C1.23982393 16.40423702 1.26710683 18.07451713 1.30175781 19.74462891 C1.35036119 22.1476372 1.37298656 24.54971434 1.390625 26.953125 C1.41127014 27.69806213 1.43191528 28.44299927 1.45318604 29.21051025 C1.45475196 32.84084463 1.29535967 34.63482545 -1.02441406 37.50292969 C-2.0023291 38.24397949 -2.0023291 38.24397949 -3 39 C-3.99 38.34 -4.98 37.68 -6 37 C-5.360625 36.236875 -4.72125 35.47375 -4.0625 34.6875 C-0.91034506 30.58014659 -0.83800625 27.41477573 -0.68359375 22.36328125 C-0.64169922 21.06455078 -0.59980469 19.76582031 -0.55664062 18.42773438 C-0.51683013 17.05599239 -0.47711784 15.68424756 -0.4375 14.3125 C-0.39429165 12.92902355 -0.35067661 11.54555973 -0.30664062 10.16210938 C-0.20041972 6.77484281 -0.09837642 3.38750201 0 0 Z " fill="#96CBB9" transform="translate(212,192)"/>
<path d="M0 0 C1.99097846 2.98646769 2.94124926 5.59687262 4 9 C3.34 9 2.68 9 2 9 C1.97291433 10.60407328 1.95356517 12.2082785 1.9375 13.8125 C1.92589844 14.70582031 1.91429687 15.59914062 1.90234375 16.51953125 C1.88990033 19.13413791 1.88990033 19.13413791 3 22 C2.67 22.66 2.34 23.32 2 24 C1.34 24 0.68 24 0 24 C0 16.08 0 8.16 0 0 Z " fill="#97CFBD" transform="translate(258,195)"/>
<path d="M0 0 C0.33 0 0.66 0 1 0 C1 5.61 1 11.22 1 17 C1.99 17.33 2.98 17.66 4 18 C4 19.65 4 21.3 4 23 C0.42369055 19.91136911 -0.87083909 16.68565938 -1.23046875 11.9921875 C-1.21628906 10.96351563 -1.20210937 9.93484375 -1.1875 8.875 C-1.18105469 7.84117187 -1.17460937 6.80734375 -1.16796875 5.7421875 C-1 3 -1 3 0 0 Z " fill="#9AC9B9" transform="translate(194,374)"/>
<path d="M0 0 C0.99 0.33 1.98 0.66 3 1 C2.67 1.99 2.34 2.98 2 4 C1.34 4 0.68 4 0 4 C0.33 6.97 0.66 9.94 1 13 C0.01 12.67 -0.98 12.34 -2 12 C-3.52491998 8.95016004 -3.23562548 6.3576631 -3 3 C-1.5 1.0625 -1.5 1.0625 0 0 Z " fill="#96C7B7" transform="translate(238,312)"/>
<path d="M0 0 C1.21042969 0.47566406 1.21042969 0.47566406 2.4453125 0.9609375 C6.64700961 2.18912589 10.5235065 2.44799009 14.875 2.625 C16.050625 2.68300781 16.050625 2.68300781 17.25 2.7421875 C19.16631367 2.83566622 21.08312319 2.91888495 23 3 C18.19594069 5.81733385 13.42199482 5.51460474 8 5 C5.14450153 4.22691512 2.70739994 3.22599242 0 2 C0 1.34 0 0.68 0 0 Z " fill="#9BCEBF" transform="translate(184,244)"/>
<path d="M0 0 C0.66 0 1.32 0 2 0 C3.16725172 4.45837499 2.98632142 8.69809019 2.6875 13.25 C2.65205078 13.9821875 2.61660156 14.714375 2.58007812 15.46875 C2.46529073 17.31905424 2.24130179 19.16190986 2 21 C1.34 21.33 0.68 21.66 0 22 C0 14.74 0 7.48 0 0 Z " fill="#B3E3DA" transform="translate(97,251)"/>
<path d="M0 0 C-0.66 1.32 -1.32 2.64 -2 4 C-2.66 3.34 -3.32 2.68 -4 2 C-4.33 2.99 -4.66 3.98 -5 5 C-6.63064764 6.05771739 -8.30280873 7.05273046 -10 8 C-11.34631825 8.98244845 -12.68441297 9.97676564 -14 11 C-14 8 -14 8 -12.20703125 5.95703125 C-11.41683594 5.24933594 -10.62664062 4.54164062 -9.8125 3.8125 C-9.03519531 3.09707031 -8.25789063 2.38164063 -7.45703125 1.64453125 C-4.67667928 -0.21640385 -3.27412306 -0.35474513 0 0 Z " fill="#92CCB6" transform="translate(117,33)"/>
<path d="M0 0 C0.33 0 0.66 0 1 0 C1 10.89 1 21.78 1 33 C-0.485 33.495 -0.485 33.495 -2 34 C-1.84152588 33.4834082 -1.68305176 32.96681641 -1.51977539 32.43457031 C-0.84791934 29.28767106 -0.77900563 26.26361848 -0.68359375 23.046875 C-0.66281265 22.38665344 -0.64203156 21.72643188 -0.62062073 21.04620361 C-0.55549853 18.94756985 -0.49641498 16.84881628 -0.4375 14.75 C-0.39427921 13.32290453 -0.3506638 11.89582095 -0.30664062 10.46875 C-0.19985589 6.97929278 -0.09848434 3.48970247 0 0 Z " fill="#90C5B2" transform="translate(440,192)"/>
<path d="M0 0 C0.66 0.33 1.32 0.66 2 1 C2 2.32 2 3.64 2 5 C2.99 5 3.98 5 5 5 C5 6.65 5 8.3 5 10 C7.64 10 10.28 10 13 10 C13 10.33 13 10.66 13 11 C9.94724259 11.29353437 7.04470835 11.41995977 4 11 C0.68246934 8.09716067 -0.63434874 5.3878151 -1 1 C-0.67 0.67 -0.34 0.34 0 0 Z " fill="#A7D4C5" transform="translate(13,179)"/>
<path d="M0 0 C0.33 0 0.66 0 1 0 C1.06058594 1.14339844 1.12117188 2.28679687 1.18359375 3.46484375 C1.26798428 4.95574305 1.35263302 6.44662775 1.4375 7.9375 C1.47681641 8.69224609 1.51613281 9.44699219 1.55664062 10.22460938 C1.44038024 13.91944187 1.44038024 13.91944187 3 17 C2.71269945 19.33944736 2.38063221 21.6739143 2 24 C1.34 24 0.68 24 0 24 C0 16.08 0 8.16 0 0 Z " fill="#98D2BE" transform="translate(125,392)"/>
<path d="M0 0 C2.41674224 -0.02705308 4.8331794 -0.04686438 7.25 -0.0625 C7.93191406 -0.07087891 8.61382812 -0.07925781 9.31640625 -0.08789062 C12.69342554 -0.10428392 15.77291639 -0.05628768 19 1 C18.67 1.66 18.34 2.32 18 3 C5.33029613 3.3690205 5.33029613 3.3690205 0 1 C0 0.67 0 0.34 0 0 Z " fill="#97B9AD" transform="translate(123,89)"/>
<path d="M0 0 C3.2542015 2.83430453 4.5206753 4.68607774 5 9 C5.99 9.33 6.98 9.66 8 10 C10.1875 11.9375 10.1875 11.9375 12 14 C12 14.66 12 15.32 12 16 C6.67114314 14.02634931 3.83866151 9.50380685 1.1875 4.75 C0 2 0 2 0 0 Z " fill="#90C6B3" transform="translate(99,495)"/>
<path d="M0 0 C0.66 0.99 1.32 1.98 2 3 C-0.97 5.97 -3.94 8.94 -7 12 C-7.66 11.01 -8.32 10.02 -9 9 C-8.34 8.34 -7.68 7.68 -7 7 C-6.01 7 -5.02 7 -4 7 C-4 6.01 -4 5.02 -4 4 C-2.68 3.67 -1.36 3.34 0 3 C0 2.01 0 1.02 0 0 Z " fill="#88CBB3" transform="translate(59,149)"/>
<path d="M0 0 C2.625 0.375 2.625 0.375 5 1 C2.94766315 3.2477975 1.99332739 4.0022242 -1 5 C-2.72795352 5.06802967 -4.45835365 5.08495645 -6.1875 5.0625 C-7.53908203 5.04896484 -7.53908203 5.04896484 -8.91796875 5.03515625 C-9.60503906 5.02355469 -10.29210937 5.01195312 -11 5 C-8.71194252 3.79268457 -6.93873225 2.98832995 -4.375 2.5 C-1.82473909 2.18891761 -1.82473909 2.18891761 0 0 Z " fill="#A7E5D5" transform="translate(277,147)"/>
<path d="M0 0 C0.33 0 0.66 0 1 0 C1.06058594 0.66386719 1.12117188 1.32773438 1.18359375 2.01171875 C1.79863507 8.54908081 1.79863507 8.54908081 3 15 C2.34 15 1.68 15 1 15 C-1.35033491 10.44622611 -1.4457809 6.01762683 -1 1 C-0.67 0.67 -0.34 0.34 0 0 Z " fill="#A3CFC1" transform="translate(30,216)"/>
<path d="M0 0 C0.66 0.66 1.32 1.32 2 2 C-0.28431738 4.35800504 -2.0081024 5.88720897 -5.3359375 6.265625 C-7.56920205 6.251535 -9.77382441 6.17460201 -12 6 C-10 4 -10 4 -6.375 3.875 C-4.704375 3.936875 -4.704375 3.936875 -3 4 C-3 3.01 -3 2.02 -3 1 C-2.01 0.67 -1.02 0.34 0 0 Z " fill="#94CAB7" transform="translate(471,184)"/>
<path d="M0 0 C0.68707555 2.49064888 1 4.37886292 1 7 C0.01 7 -0.98 7 -2 7 C-2 9.64 -2 12.28 -2 15 C-4.30123461 11.54814809 -4.09722333 9.94792403 -3.4921875 5.94140625 C-2.86201191 3.45571365 -1.76478242 1.84151209 0 0 Z " fill="#A0D4C4" transform="translate(219,448)"/>
<path d="M0 0 C7.75 -0.125 7.75 -0.125 10 1 C11.70363822 1.22622081 13.41328701 1.40888473 15.125 1.5625 C16.03507812 1.64628906 16.94515625 1.73007813 17.8828125 1.81640625 C18.58148438 1.87699219 19.28015625 1.93757812 20 2 C20 2.33 20 2.66 20 3 C17.79194476 3.0544452 15.58349446 3.09299283 13.375 3.125 C12.14523438 3.14820313 10.91546875 3.17140625 9.6484375 3.1953125 C6.05683959 3.0030428 3.33338825 2.30258556 0 1 C0 0.67 0 0.34 0 0 Z " fill="#ADDACB" transform="translate(47,246)"/>
<path d="M0 0 C0 4.45566993 -2.64308265 6.47346798 -5.5 9.6875 C-7.20786562 11.18188242 -8.93596616 12.07474345 -11 13 C-9.46356148 9.31930113 -7.21849055 7.01224796 -4.375 4.25 C-3.55773438 3.45078125 -2.74046875 2.6515625 -1.8984375 1.828125 C-0.95871094 0.92320313 -0.95871094 0.92320313 0 0 Z " fill="#90C7B3" transform="translate(65,122)"/>
<path d="M0 0 C2 1 2 1 3.1875 3.25 C4.08937081 6.30248582 3.86361585 7.97734454 3 11 C2.01 10.67 1.02 10.34 0 10 C0 6.7 0 3.4 0 0 Z " fill="#AEDACC" transform="translate(384,44)"/>
<path d="M0 0 C6.4 -0.49230769 6.4 -0.49230769 9.4375 2 C10.2109375 2.99 10.2109375 2.99 11 4 C10.67 4.66 10.34 5.32 10 6 C6.7 4.35 3.4 2.7 0 1 C0 0.67 0 0.34 0 0 Z " fill="#96CAB7" transform="translate(155,268)"/>
<path d="M0 0 C1.98 0 3.96 0 6 0 C6 2.97 6 5.94 6 9 C5.34 7.68 4.68 6.36 4 5 C2.6949419 3.31110128 1.36639342 1.6396721 0 0 Z " fill="#B4DFCD" transform="translate(248,450)"/>
<path d="M0 0 C-1.26941497 3.91402949 -2.51167694 5.79072873 -6 8 C-5.67 5.69 -5.34 3.38 -5 1 C-2 0 -2 0 0 0 Z " fill="#91C5B3" transform="translate(298,393)"/>
<path d="M0 0 C0.33 0 0.66 0 1 0 C1.10957031 0.66386719 1.21914063 1.32773438 1.33203125 2.01171875 C2.21136023 6.90879478 2.99451714 10.90161428 6 15 C3.5625 14.3125 3.5625 14.3125 1 13 C-0.55555148 8.9316346 -0.07296545 4.30496172 0 0 Z " fill="#92C7B5" transform="translate(273,214)"/>
<path d="M0 0 C0.33 0 0.66 0 1 0 C1.8125 3.25 1.8125 3.25 2 7 C0 9.4375 0 9.4375 -3 11 C-6.8125 11.25 -6.8125 11.25 -10 11 C-10 10.67 -10 10.34 -10 10 C-7.36 9.34 -4.72 8.68 -2 8 C-1.34 5.36 -0.68 2.72 0 0 Z " fill="#8FC1AF" transform="translate(284,380)"/>
<path d="M0 0 C5.01656959 1.4333056 7.01452882 3.90563952 10 8 C10 8.66 10 9.32 10 10 C9.34 10 8.68 10 8 10 C7.38125 9.05125 6.7625 8.1025 6.125 7.125 C4.12075527 4.17758128 3.25209269 3.16146167 0 2 C0 1.34 0 0.68 0 0 Z " fill="#8FC1B1" transform="translate(288,363)"/>
<path d="M0 0 C2.3125 1.9375 2.3125 1.9375 4 4 C3.67 4.99 3.34 5.98 3 7 C2.67 6.34 2.34 5.68 2 5 C-0.30965848 3.94647157 -2.6429774 2.94280904 -5 2 C-5 1.67 -5 1.34 -5 1 C-2.75 0.25 -2.75 0.25 0 0 Z " fill="#A5DECE" transform="translate(94,243)"/>
<path d="M0 0 C2.625 0.9375 2.625 0.9375 5 2 C5 3.32 5 4.64 5 6 C2.11562221 4.70700306 0.12780579 3.34058637 -2 1 C-1.34 0.67 -0.68 0.34 0 0 Z " fill="#9CD7C3" transform="translate(42,240)"/>
<path d="M0 0 C-1.26941497 3.91402949 -2.51167694 5.79072873 -6 8 C-6 4 -6 4 -4.125 1.75 C-2 0 -2 0 0 0 Z " fill="#9AC8B6" transform="translate(384,502)"/>
<path d="M0 0 C0.66 0.33 1.32 0.66 2 1 C1.835 1.928125 1.67 2.85625 1.5 3.8125 C0.92251612 6.95621353 0.92251612 6.95621353 1 10 C0.01 10 -0.98 10 -2 10 C-1.34 6.7 -0.68 3.4 0 0 Z " fill="#88C5B1" transform="translate(300,300)"/>
<path d="M0 0 C0.33 0.66 0.66 1.32 1 2 C-1.84936103 5.00765886 -4.23511958 7.27845212 -8 9 C-7.04270084 7.87411986 -6.08412105 6.7493285 -5.125 5.625 C-4.59132813 4.99851563 -4.05765625 4.37203125 -3.5078125 3.7265625 C-2.38567993 2.44163349 -1.20628025 1.20628025 0 0 Z " fill="#96C0B0" transform="translate(36,153)"/>
<path d="M0 0 C6.75 0.75 6.75 0.75 9 3 C6.36 3 3.72 3 1 3 C0.67 2.01 0.34 1.02 0 0 Z " fill="#B8DBCD" transform="translate(362,29)"/>
<path d="M0 0 C5.75 1.875 5.75 1.875 8 3 C8 3.66 8 4.32 8 5 C4.33776842 4.50510384 2.33006074 3.94323463 0 1 C0 0.67 0 0.34 0 0 Z " fill="#A5D8C6" transform="translate(251,433)"/>
<path d="M0 0 C1.65 0 3.3 0 5 0 C5 1.65 5 3.3 5 5 C4.01 5.495 4.01 5.495 3 6 C2.01 4.02 1.02 2.04 0 0 Z " fill="#A4D4C5" transform="translate(367,49)"/>
<path d="M0 0 C0.66 0 1.32 0 2 0 C1.25 6.75 1.25 6.75 -1 9 C-0.67 6.03 -0.34 3.06 0 0 Z " fill="#AFDBCD" transform="translate(268,464)"/>
<path d="M0 0 C0.33 0.66 0.66 1.32 1 2 C-0.32 3.65 -1.64 5.3 -3 7 C-3.99 6.67 -4.98 6.34 -6 6 C-4.02 4.02 -2.04 2.04 0 0 Z " fill="#92C5B2" transform="translate(47,141)"/>
<path d="M0 0 C0 3.90838866 -1.50567876 5.11594107 -4 8 C-4.99 7.67 -5.98 7.34 -7 7 C-4.69 4.69 -2.38 2.38 0 0 Z " fill="#8CC3B5" transform="translate(91,94)"/>
</svg>
